<?xml version="1.0" encoding="utf-8"?>
<!-- Generator: Adobe Illustrator 28.1.0, SVG Export Plug-In . SVG Version: 6.00 Build 0)  -->
<svg version="1.1"
	 id="svg131" xmlns="http://www.w3.org/2000/svg" x="0px" y="0px" viewBox="0 0 595.28 841.89"
	 style="enable-background:new 0 0 595.28 841.89;" xml:space="preserve">
<style type="text/css">
	.st0{fill:#497D4F;}
	.st1{fill:#578656;}
	.st2{fill:#508950;}
	.st3{fill:#6CA273;}
	.st4{fill:#61956D;}
	.st5{fill:#5A845B;}
	.st6{fill:#437748;}
	.st7{fill:#313B35;}
	.st8{fill:#335D2F;}
	.st9{fill:#438555;}
	.st10{fill:#D8D7D5;}
	.st11{fill:#1D4B24;}
	.st12{fill:#356132;}
	.st13{fill:#356A34;}
	.st14{fill:#2F6E36;}
	.st15{fill:#131B14;}
</style>
<path id="path11" class="st0" d="M414.44,252.77c1.11,0.16,2.23,0.32,3.34,0.49c16.22,2.44,39.36-11.12,47.33,5.44
	c10.37,21.54-5.99,45.01-16.23,64.94c-29.55,57.5-93.77,90.56-141.18,57.88c-9.78-6.74-22.48-12.5-35.47-8.5
	c-4.23-5.14-2.49-10.33-0.14-15.53c14.81-23.3,36.23-35.81,58.98-41.96c28.75-7.77,53.58-24.57,75.04-35.64
	c-25.11,0.87-98.8,99.07-134.88,67.06c21.57-32.71,18.56-58.58,33.84-70.44c23.18-17.99,64.17-17.89,73.03-20.24
	C392.9,252.34,405.78,252.22,414.44,252.77L414.44,252.77z"/>
<path id="path13" class="st1" d="M183.47,474.59C128.23,497.04,35.36,454.2,6.73,393.93c-5.28-11.12-3.33-15.73,5.43-21.1
	c53.68-32.9,157.85-13.53,198.82,37.38c-22.11,15.37-36.84-9.23-55.25-13.9c-34.9-15.86-70.65,3.55-105.71-4.54
	c8.74,1.52,17.51-2.08,26.29,1.07c4.57,1.44,9.23,2.42,13.75,4.09c17.99,16.19,41.1,26.62,46.9,56.71
	c2.04,10.61,9.54,8.98,15.88,9.82C163.67,464.88,175.47,462.51,183.47,474.59L183.47,474.59z"/>
<path id="path15" class="st2" d="M271.36,562.06c13.37-3.63,18.3-18.27,26.46-28.47c57.8-72.31,110.5-86.36,189.53-49.81
	c21.73,10.05,41.05,24.7,59.45,41.27c-6.11,13.45-16.45,15.9-25.36,20.86c-9.78,3.46-17.09-2.83-24.6-8.44
	c-34.96-5.37-70.18-7.2-105.15-12c-11.88-1.64-24.77,1.21-33.18-12.51c14.12-31.04,39.19-13.9,60.71-19.56
	c-20.03,3.39-39.99-5.75-57.08,9.88c-8.39,13.85-21.04,21.36-32.63,30.45c-7.25,6.58-18.05,3.7-24.43,12.68
	c-8.35,7.79-16.71,15.58-25.06,23.36C271.29,576.26,271.67,568.62,271.36,562.06L271.36,562.06z"/>
<path id="path17" class="st3" d="M507.65,530.07c4.6,5.28,9.2,10.56,13.8,15.84c-51.56,47.91-107.1,54.16-166.46,22.28
	c-16.16-8.68-31.8-19.14-49.89-21.77c3.44-11.57,10.62-16.97,20.82-17.37c40.12-15.83,80.74-4.39,121.14-2.98
	c16.97,4.36,34.08,5.42,51.32,2.17C501.84,526.32,504.92,526.93,507.65,530.07z"/>
<path id="path19" class="st4" d="M223.87,282.93c-66.19-25.1-105.5-139.52-73.01-213.41c2.27-5.15,7.25-5.15,10.39,0.88
	c21.4,59.71,28.57,126.22,62.99,179.79C230.5,259.95,231.66,272.14,223.87,282.93L223.87,282.93z"/>
<path id="path21" class="st5" d="M169.52,78.14c39.2,13.52,59.27,50.59,78.33,88.53
	c6.09,12.12,10.38,25.47,15.49,38.27c13.64,37.22,23.56,37.74,8.37,78.84c-7.47,16.97-10.52,37.34-10.74,7.68
	c-22.38-50.05-55.03-93.21-72.12-146.89C186.53,120.8,157.97,107.46,169.52,78.14z"/>
<path id="path23" class="st6" d="M183.47,474.59c-15.77-0.18-31.62,0.69-47.27-0.96c-8.61-0.91-24.31,0.27-8.83-19.69
	c10.42-13.43-6.87-11.56-10.69-17.06c-8.46-12.18-18.78-22.6-28.33-33.73c3.01-4.08,6.86-8.33,11.23-7.62
	c38.67,6.2,75.94,19.54,113.02,33.14c10.01,3.67,14.83,15.56,10.96,29.22C211.63,468.23,198.34,474.02,183.47,474.59L183.47,474.59z
	"/>
<path id="path25" class="st7" d="M269.85,323.34c1.14,7.79,0.92,15.74,1.39,23.6
	c4.73,3.92,10.31,7.34,6.83,16.08c-1.95,3.34-3.89,6.67-5.83,10.01c-0.3,63.01-0.58,126.01-0.88,189.03
	c0.96,5.55,3.98,7.9,8.66,7.72c-9.28,11.02-11.12,23.71-6.19,37.93c-6.91-1.55-22.33,16.84-23.16,10.94
	c-0.9-6.44,8.78-19.19,7.74-40.66c-0.71-38.92-1.43-77.83-2.15-116.75c-2.69-4.56-2.64-9.08,0.18-13.54
	c0.14-54.06,6.36-108.22-1.93-162.14c2.5-3.86,5.6-4.71,9.3-2.55c2.18,13.4,2.3,14.76,4.48,29.63L269.85,323.34z"/>
<path id="path27" class="st8" d="M256.46,447.68c-0.06,4.52-0.11,9.03-0.18,13.55c-10.91-1.12-21.82-2.23-32.73-3.35
	c-4.57-7.15-8.09-18.92-13.86-20.71c-40.18-12.5-80.83-22.93-121.34-34.03c-4.35-0.16-8.69-0.32-13.04-0.48
	c4.42-22.88,21.44-11.28,32.06-14.33c15.5-4.46,32.39-0.99,48.68-1.53c18.31,7.81,36.62,15.61,54.93,23.41
	C226.09,422.77,236.49,443.22,256.46,447.68L256.46,447.68z"/>
<path id="path29" class="st9" d="M169.52,78.14c0.42,25.99,27.08,36.16,27.25,62.3c2.46,41.77,24.59,72.88,42.53,105.97
	c9.47,17.47,13.65,30.19-8.33,36.25c-2.36,0.09-4.72,0.18-7.08,0.27c-22.31-46.7-39.39-96.02-52.97-146.99
	c-5.66-21.23-22.01-40.57-9.66-65.55C164.01,72.98,166.77,75.56,169.52,78.14L169.52,78.14z"/>
<path id="path31" class="st10" d="M331.62,807.55c2.55-5.27,5.1-10.54,7.65-15.8c85.06-3.65,169.73,5.26,254.57,15.8
	C506.43,807.55,419.02,807.55,331.62,807.55z"/>
<path id="path33" class="st11" d="M230.96,282.66c11.28-9.4,12.82-18.28,2.32-31.37
	c-18.8-23.41-26.12-54.87-38.51-82.79c-4.29-9.66-7.79-19.61,2-28.06c17.81,42.16,35.62,84.35,61.79,120.58
	c4.83,6.69,5.03,14.18,5.27,21.98c-3.1,0.84-4.12,16.81-7.22,17.66C248.76,299.7,238.81,283.63,230.96,282.66L230.96,282.66z"/>
<path id="path35" class="st12" d="M278.07,363.01c-2.28-5.36-4.55-10.71-6.83-16.08c22.13-9.09,29.69-40.51,53.05-47.71
	c40.95,6.99,71.49-32.05,113.57-27.22c-33.09,17.18-65.74,35.65-99.42,51.07C316.45,333.13,294.44,341.82,278.07,363.01
	L278.07,363.01z"/>
<path id="path37" class="st6" d="M156.04,386.8c-14.07,14.86-31.23,5.45-46.86,8.13c-11.41,1.96-24.19-4.57-33.89,7.74
	c-16.64-4.02-36.39,2.62-50.13-23.68C70.13,395.22,113.57,365.58,156.04,386.8z"/>
<path id="path39" class="st13" d="M507.65,530.07c-2.17,0.07-4.34,0.18-6.5,0.35c-15.91,5.43-31.84,5.09-47.78,0.18
	c-42.49-0.52-84.98-1.03-127.47-1.56c6.84-15.98,19.59-20.2,33.1-22.87l-0.1-0.14c36.26,11.77,73.55,13.5,110.8,16.05
	C482.52,522.96,496.71,516.43,507.65,530.07L507.65,530.07z"/>
<path id="path41" class="st14" d="M359.02,506.17c21.2-30.2,48.46-11.17,73.17-12.72c-23.91,8.44-49.78,0.71-73.29,12.58
	L359.02,506.17L359.02,506.17z"/>
<path id="path43" class="st2" d="M453.38,530.6c15.92-0.07,31.85-0.12,47.78-0.19C485.26,542,469.33,541.4,453.38,530.6z"/>
<path id="path45" class="st15" d="M343.73,606.11c-23.23,1.73-46.59,1.15-69.89,1.58c-0.34-0.08-0.65-0.17-0.95-0.27
	c-2.41-0.02-4.83-0.03-7.24-0.03c-1.73,0.23-3.46,0.48-5.18,0.71c-3.68,0.5-7.36,0.25-11.03-0.1c-5.52,0.66-11.02,1.63-16.59,1.02
	c-0.22-0.03-0.42-0.07-0.62-0.12c-0.57-0.04-1.15-0.08-1.74-0.14c-26.49-2.73-53.34-0.65-82.8-0.65
	c11.46,61.45,22.69,117.8,32.17,174.55c3.25,19.46,10.55,25.29,26.87,24.88c41.62-1.07,83.27-0.12,124.9,0.02
	c4.22-4.15,11.1-6.54,7.65-15.8c8.49-50.82,16.5-101.75,25.67-152.4C368.92,617.28,366.71,604.4,343.73,606.11L343.73,606.11z"/>
</svg>
